<svg aria-hidden="true" focusable="false" data-prefix="fad" data-icon="calendar" role="img" xmlns="http://www.w3.org/2000/svg" viewBox="0 0 448 512" class="svg-inline--fa fa-calendar fa-fw"><g class="fa-duotone-group"><path fill="currentColor" d="M0 192H448V464c0 26.5-21.5 48-48 48H48c-26.5 0-48-21.5-48-48V192z" class="fa-secondary"/><path fill="currentColor" d="M160 32c0-17.7-14.3-32-32-32S96 14.3 96 32V64H48C21.5 64 0 85.5 0 112v80H448V112c0-26.5-21.5-48-48-48H352V32c0-17.7-14.3-32-32-32s-32 14.3-32 32V64H160V32z" class="fa-primary"/></g></svg>