<svg aria-hidden="true" focusable="false" data-prefix="fasl" data-icon="compass" role="img" xmlns="http://www.w3.org/2000/svg" viewBox="0 0 512 512" class="margin-right-xl svg-inline--fa fa-compass fa-fw fa-2x"><path fill="currentColor" d="M256 32a224 224 0 1 1 0 448 224 224 0 1 1 0-448zm0 480A256 256 0 1 0 256 0a256 256 0 1 0 0 512zm38.7-217.3L178.6 333.4l38.7-116.1 116.1-38.7L294.7 294.7zm51.3-154.1L192 192 140.6 346.1 128 384l37.9-12.6L320 320l51.4-154.1L384 128l-37.9 12.6zM256 280a24 24 0 1 0 0-48 24 24 0 1 0 0 48z" class=""/></svg>