<svg aria-hidden="true" focusable="false" data-prefix="fasl" data-icon="mug-saucer" role="img" xmlns="http://www.w3.org/2000/svg" viewBox="0 0 640 512" class="margin-right-xl svg-inline--fa fa-mug-saucer fa-fw fa-2x" style="color: var(--fa-dk-purple);"><path fill="currentColor" d="M416 64h16 16V224v32 96H128V64H416zm64 288V256h48c61.9 0 112-50.1 112-112s-50.1-112-112-112H480 448 432 416 128 96V64 352v32h32H448h32V352zm48-128H480V64h48c44.2 0 80 35.8 80 80s-35.8 80-80 80zM16 448H0v32H16 560h16V448H560 16z" class=""/></svg>