<svg aria-labelledby="svg-inline--fa-title-ee9fllNxJInE" data-prefix="fac" data-icon="irs" role="img" xmlns="http://www.w3.org/2000/svg" viewBox="0 0 1422 512" class="svg-inline--fa fa-irs fa-lg"><title id="svg-inline--fa-title-ee9fllNxJInE" class="">IRS</title><path fill="currentColor" d="m413.69 143.94c18.45-3 9.79 30.21 4.91 43.19-6.66-16-11.59-25.06-23-40.06 6.65-2.12 11.56-2.12 18.13-3.13zm-141.26 54.31h-50.19c-3.86-12.05-.22-15.07 10.62-16.16 20.28-1.91 37.75-1.91 39.57 16.16zm-3.79 201v-38.12h29l-43.64 123.87-43.32-123.87h29v27.3c-.08-.1 0 2.52 1 2.79 3.84 2 4.71 2 4.66 1.94zm86.1 77.54c0 .05-20.65 2.06-33.72 2.16-12.06-.1-31-2.11-31.13-2.16l31.11-99.47zm-167.41 2.11c-13.17-.1-33.81-2.11-33.73-2.16l33.73-99.42 31.13 99.42c-.08.05-19 2.06-31.13 2.16zm352.26-303.81c-6.75-58.27-10.68-73.39-18.39-86.46-6.2-10.69-69.74-40.23-161.51-59.37-37.75 41.26-37.86 57.65-38.69 64.47-1 7 12.49 24.29 26.16 42.23 25.07 33.13 31.84 39.19 35.64 49.25 7.3 18.91-4.76 61.23-13.45 100.58-.08-.11-22.59-83-33-136.8-1-5 1-8 .93-8-56.73-5.64-94.71-8.15-101.6 22-26 .07-38 7.62-40.56 12.09-6.8 11.21 1.37 34.66 5.68 46.23 3.64-9.06 26.93-7.56 34.43-7.11 3.32.16 3.32 2.07 4.24 4l.23 112.8h-66.76l-58 157.86c26.92 13.15 55 23.18 72.4 23.19s60.5-23.14 66.7-23.19c5.89.05 49.43 23.18 67 23.19 17.31 0 45.41-9.05 72.39-23.19l-58.05-157.86h-66.74v-106.77c-1.15-7.06-4.21-9.35-6.82-9.79h33.95c-4.91-20.2-11.69-34.26-21.23-35.25 2.75-4 4.82-5.66 8.73-9.18h-26.16c2.81-14 36.71-9 51.17-8 15 75.66 43.41 177.29 44.57 179.08 1.21 1.63 25.21 10.78 28.1 11.09 13.79-30.3 34.62-119.43 35.82-140.91 17.32 6 10.44 29.64 6.79 53.23-19.56 122.5-35.12 159.26-39.79 182.03 17.34-3.77 28.17-7 29.92-8.94 2.77-2.77 10.68-23.5 17.64-46.37 10.05-33.16 26.91-117.6 25.94-150.81-.08-8-6.66-16.08-18.35-22.21a185.67 185.67 0 0 0 8.67-16.8c3.58-8.67 7.8-23.24 7.8-23.17 6.8 2 12.8 5 13.68 12.05 3.74 32 1.78 35.05-2.11 94.3-1.14 18.91-7.72 56.46-14.4 95.65-12.46 71.89-24.29 102.7-24.29 113.64 18.39-6 32.54-10.65 34-13 1.82-3.44 15.39-38.27 25-90.47 4.14-22.36 7.11-44.49 10.62-67.38 4.91-30.26 5.86-61.54 5.9-87.65 0-38.07 4.4-38.26-23.12-53.24 10.57-31.1 8.3-51.41 5.67-57.24-4.75-11.06-10.54-11.06-34.92-9.15 8.84 8.13 6.08 25.25 4 35.23-4.78-4-2.92-11-29-9.89-3.91-43.36-11.69-48.2-12.7-49.49-3.72-4.94-25.25-2.62-31.82 0 4.81 3.12 14.53 37.32 9.65 50.45-2.88-4.09-39.62-46.33-36.78-54.33 1.77-4.88 3.92-10.12 16.53-25.08 43.51 7.93 118.05 36.09 121.88 44.18a128.06 128.06 0 0 1 11.52 38.14c4.09 24.9 11.48 84.34 7.79 174.92-3.79 93.55-15.77 146.68-15.55 143.85 13.73-4.31 36.14-25.54 38-30.19 5.83-15.38 8.58-70.32 10.6-120.65s-3.19-113.77-5.89-137.75zm-309.39-164.6c31.18-12.56 62.69-10.3 71.48-10.38-6.07 19.38-31.74 56.53-58.68 70-14.63 7.18-43.51 13-61.55 18.49-21 6.07-53.19 16.92-77.61 35.7-17.1 13.24-25 31.94-23 57.66 15-16.5 46.79-37 72.7-45.34-7 23.73-5.89 42.91-14 64.69-5.11 13.85-43.74 47.19-54.54 64.55-7.84 12.52-12 33.26-9 51.51 0-.05 10-13.09 16.72-20.71 16.35-17.45 47.89-38.92 47.78-38.92.11 11.71-4.87 62.67-10.9 84.29-4.76 17.7-36.8 51.18-45.58 60.52-.09-.11 9.19 24.65 14.76 40.91a217.41 217.41 0 0 1 7 24.65c-11-4.05-62.65-25.61-78.72-42.13-18.17-18.79-19.18-39.86-22.82-62.5-1-7.13-5.56-51.72-3.86-60.66-.1.1 27 18.91 40.72 35a391.49 391.49 0 0 1 25.91 34c-1.1-7.3-2.51-13.57-2.92-18.5-1.56-13.63 7.18-23.71 5.83-26.85 0 .05-1-3-4.86-11.35-7.67-15.71-45-42.21-54.74-59.38-4.38-7-14-22.68-8-102.65 0 0 29.6 31.23 44.86 51.16 9.51 12.82 19.77 32.93 19.85 33-3-27.78 7.91-42 7-42.26-.16-.8-2.07-11-6.08-18.25-13.95-24.62-47.05-38.38-51.56-67.74-3.87-22.8 5.84-41.09 57.41-61.58 10.11 35.9 4.14 66.7 3.16 95.33 24.81-21.45 21.79-75.87 33.93-95.33 4.23-7.23 9.89-14.89 28.62-22.67 17.54-7.11 28-12.25 44.86-14.28-.34 2-9.53 35.17-17 51.23-8.94 19.57-21.15 27.17-21.82 28.83 19.85-5.15 34.82-14.4 47.77-34 4.32-6.36 9.39-13.45 15.05-22.39 5.11-8.6 10.68-19.17 21.8-23.66m1180.69 292.52a117.55 117.55 0 0 0 -32.43-39.69q-21.06-16.84-78.63-48.37-70.63-38.62-89.41-61.78-13-15.76-13.05-34.94 0-25 20.62-44.63t52.13-19.59q27.91 0 53.91 14.48t40.15 39.24q14.08 24.73 19.54 66.45h11.2v-144.91h-11.2c-2 9.66-4.68 16.11-8 19.3s-7.62 4.77-12.86 4.77q-7 0-23.95-7.71-36.68-16.38-69.39-16.36-52.46 0-86.37 32.58t-34 77.72a99.41 99.41 0 0 0 11.52 47.57q11.49 21.66 33.78 39.55t75 48.05q52.69 30.12 64.56 39.4 17.52 13.58 25.88 29.35c5.59 10.5 8.33 20.91 8.33 31.21q0 27.8-21.94 48.21t-59.86 20.38q-32.73 0-60.16-14.82t-40.75-37.22q-13.36-22.44-21.23-67.52h-11.21v134.1h13.21c1.22-4.39 2.72-7.7 4.51-9.59 2.91-3.11 6.93-4.63 12-4.63q7.86 0 37.43 9.73t38.94 11.29a194.75 194.75 0 0 0 33.66 2.77q56.94 0 93.17-34.46t36.21-82a106.17 106.17 0 0 0 -11.31-47.93m-526.86-54.08q5.6 0 9.72.16c2.76.1 5 .16 6.77.16q57.1 0 86.12-26.43t29-67.28q0-40-23.39-64.95t-62-25q-17.07 0-46.23 6zm31.8-207.24q63.62 0 93.75 9.91t51.27 36.49q21 26.57 21 63.37 0 39.28-24 68.23t-74.32 40.88l82.5 122.33q28.2 42.11 48.55 56c13.54 9.23 24.94 14.39 47.09 18.93l.11 10.33h-100.82l-135.13-199.42c-10 .44-18.18.63-24.44.63-2.56 0-5.3-.05-8.26-.15s-6-.28-9.12-.48v123.89q0 40.28 8.26 50 11.16 13.85 33.56 13.84h15.6v11.65h-171.07v-11.65h15q25.3 0 36.21-17.61 6.18-9.74 6.19-46.23v-275.46q0-40.25-8.25-50-11.48-13.83-34.13-13.84h-15v-11.64zm-163.24 0v11.65h-15q-25.44 0-37.06 15.41-7.65 10.08-7.66 48.43v275.46q0 32.4 4 42.77 3.06 7.86 12.84 13.51a55.07 55.07 0 0 0 27.89 7.56h15v11.64h-177.93v-11.64h14.7q25.7 0 37.35-15.4 7.31-10.07 7.31-48.44v-275.46q0-32.39-4-42.77c-2-5.24-6.23-9.75-12.54-13.52a56.78 56.78 0 0 0 -28.17-7.55h-14.7v-11.65z" class=""/></svg>