<svg aria-hidden="true" focusable="false" data-prefix="fad" data-icon="face-smile" role="img" xmlns="http://www.w3.org/2000/svg" viewBox="0 0 512 512" class="svg-inline--fa fa-face-smile fa-fw"><g class="fa-duotone-group"><path fill="currentColor" d="M256 512A256 256 0 1 0 256 0a256 256 0 1 0 0 512zM164.1 325.5C182 346.2 212.6 368 256 368s74-21.8 91.9-42.5c5.8-6.7 15.9-7.4 22.6-1.6s7.4 15.9 1.6 22.6C349.8 372.1 311.1 400 256 400s-93.8-27.9-116.1-53.5c-5.8-6.7-5.1-16.8 1.6-22.6s16.8-5.1 22.6 1.6zM144.4 208a32 32 0 1 1 64 0 32 32 0 1 1 -64 0zm192-32a32 32 0 1 1 0 64 32 32 0 1 1 0-64z" class="fa-secondary"/><path fill="currentColor" d="M176.4 240a32 32 0 1 0 0-64 32 32 0 1 0 0 64zm160 0a32 32 0 1 0 0-64 32 32 0 1 0 0 64z" class="fa-primary"/></g></svg>